<svg xmlns="http://www.w3.org/2000/svg" width="5882.281" height="1155.001" viewBox="0 0 5882.281 1155.001"><defs><style>.a{stroke:rgba(0,0,0,0);stroke-miterlimit:10;}.b{font-size:839px;font-family:Avenir-Black, Avenir;font-weight:800;}.c{font-family:Avenir-Book, Avenir;font-weight:400;}</style></defs><g transform="translate(-203.719)"><path d="M129.427,258.852l0-.007A273.875,273.875,0,0,0,115.7,233.031c-8.106-13.625-21.278-33.375-37.992-50.088s-36.953-30.375-50.988-38.892C11.579,134.863.111,129.479,0,129.427c.084-.04,11.521-5.365,26.539-14.444,13.951-8.434,34.091-22,50.807-38.712S107.332,39.709,115.521,26A281.373,281.373,0,0,0,129.427,0c.042.085,5.467,11.61,14.681,26.776,8.541,14.059,22.231,34.326,38.949,51.045s36.434,29.855,50.033,37.937a272.284,272.284,0,0,0,25.764,13.67,298.063,298.063,0,0,0-26.27,14.175c-13.829,8.31-33.823,21.726-50.539,38.441s-30.133,36.71-38.444,50.538a296.639,296.639,0,0,0-14.171,26.264Zm.566-176.388a53.132,53.132,0,0,1-46.672,46.673v.7a53.131,53.131,0,0,1,46.672,46.676h.7a53.136,53.136,0,0,1,46.676-46.676v-.7a53.133,53.133,0,0,1-46.676-46.673h-.7Z" transform="translate(884.664 9.323)"></path><path d="M241.212,482.425v0a518.924,518.924,0,0,0-25.58-48.122c-9.614-16.158-19.811-31.57-30.307-45.806a419.232,419.232,0,0,0-40.5-47.546,434.065,434.065,0,0,0-48.069-41.024C82.241,289.151,66.442,278.567,49.8,268.467,21.438,251.258.211,241.311,0,241.213c.2-.091,21.383-9.945,49.46-26.917,16.547-10,32.267-20.508,46.724-31.226a431.042,431.042,0,0,0,47.963-40.919A422.2,422.2,0,0,0,184.754,94.5c10.552-14.291,20.827-29.78,30.54-46.038A528.56,528.56,0,0,0,241.212,0c.093.2,10.167,21.6,27.36,49.9C278.7,66.578,289.312,82.4,300.1,96.932a435,435,0,0,0,41.057,48.1A418.3,418.3,0,0,0,388.673,185.5c14.218,10.478,29.6,20.651,45.733,30.235a510.9,510.9,0,0,0,48.019,25.476,552.613,552.613,0,0,0-48.961,26.418c-16.4,9.857-32.007,20.248-46.381,30.882a396.184,396.184,0,0,0-88.57,88.57c-10.635,14.374-21.025,29.979-30.882,46.381a552.815,552.815,0,0,0-26.417,48.959Zm-3.725-343.112h0a222.322,222.322,0,0,1-6.938,27.071,164.336,164.336,0,0,1-9.331,23.173c-4.241,8.416-8.893,15.184-13.825,20.117A95.641,95.641,0,0,1,189.459,223.5a141.422,141.422,0,0,1-18.376,9.331,147.949,147.949,0,0,1-20.094,6.938l.025,0a151.927,151.927,0,0,1,20.136,7,142.686,142.686,0,0,1,18.423,9.378A96.007,96.007,0,0,1,207.531,270c4.933,4.932,9.577,11.693,13.8,20.1a163.142,163.142,0,0,1,9.284,23.126,220.985,220.985,0,0,1,6.87,27l0-.032a225.518,225.518,0,0,1,6.934-27.039,164.347,164.347,0,0,1,9.331-23.173c4.241-8.416,8.893-15.184,13.825-20.116a95.643,95.643,0,0,1,17.937-13.825,141.423,141.423,0,0,1,18.376-9.331,147.982,147.982,0,0,1,20.094-6.938l-.024,0a147.846,147.846,0,0,1-19.99-6.854,139.919,139.919,0,0,1-18.321-9.276,95.212,95.212,0,0,1-17.912-13.8c-4.932-4.933-9.592-11.709-13.85-20.142a165.758,165.758,0,0,1-9.386-23.228,224.783,224.783,0,0,1-7.018-27.151Z" transform="translate(230.423 0)"></path><path class="a" d="M549.812,1052.983c-19.927,0-39.736-.8-58.877-2.385s-38.15-3.991-56.491-7.156-36.552-7.177-54.107-11.925-34.952-10.363-51.722-16.695-33.167-13.4-48.762-21.024-30.811-16-45.228-24.912a495.516,495.516,0,0,1-41.7-28.8,477.677,477.677,0,0,1-103-108.832,497.656,497.656,0,0,1-26.456-43.241C55.354,773.1,47.79,757.393,40.988,741.328A489.229,489.229,0,0,1,23.056,691.55a522.231,522.231,0,0,1-12.809-52.516c-3.4-17.875-5.984-36.465-7.685-55.256S0,545.478,0,525.784c0-19.926.877-39.661,2.606-58.656s4.36-37.777,7.818-55.83a521.559,521.559,0,0,1,13.03-53A488.407,488.407,0,0,1,41.7,308.121c.946-2.212,1.873-4.343,2.755-6.334,4.6,2.815,9.193,5.736,13.648,8.68a472.084,472.084,0,0,1,73.525,60.074,467.908,467.908,0,0,1,92.7,131.524,468.166,468.166,0,0,1,27.346,73.349c4.855,17.336,10.143,32.615,15.741,48.791l.005.015.009.024,0,.006.108.312.081.235.024.07c1.824,5.269,3.709,10.718,5.584,16.27,1.184,3.938,2.464,7.926,3.8,11.854,3.28,9.607,7.01,19.013,11.087,27.959a280.953,280.953,0,0,0,13.472,25.927,265.614,265.614,0,0,0,15.857,23.895,259.938,259.938,0,0,0,18.241,21.864,251.46,251.46,0,0,0,20.582,19.7,258.187,258.187,0,0,0,22.879,17.4,275.272,275.272,0,0,0,25.177,15.106,302.861,302.861,0,0,0,27.473,12.809,289.122,289.122,0,0,0,29.637,10.2,321.77,321.77,0,0,0,31.669,7.288c10.842,1.934,22.18,3.405,33.7,4.373s23.538,1.458,35.733,1.458c14.055,0,27.964-.535,41.342-1.591s26.577-2.662,39.221-4.77c7.254-1.21,20.927-4.245,44.876-11.838,13.612-4.317,24.561-8.216,25.764-8.646l.031-.011V631.79H522.957V436.74H935.671V966.766c-12.187,6.328-25.07,12.45-38.294,18.2s-27.142,11.271-41.387,16.43-29.212,10.094-44.477,14.664c-15.233,4.562-31.238,8.9-47.57,12.9-16.279,3.982-33.175,7.519-50.219,10.512-17.022,2.989-34.661,5.515-52.429,7.509-17.785,1.995-36.167,3.51-54.636,4.5C588.161,1052.477,569.036,1052.983,549.812,1052.983ZM761.735,291.691c-1.6-1.542-3.236-3.073-4.86-4.55a247.716,247.716,0,0,0-21.907-17.712,281.219,281.219,0,0,0-24.735-15.856c-8.671-4.951-17.944-9.662-27.561-14a278.775,278.775,0,0,0-40-14.426h.153l-2.613-.673-.152-.039c-1.733-.463-3.439-.9-5.071-1.309-26.642-6.9-54.64-14.642-78.9-24.494a466.928,466.928,0,0,1-81.513-42.936,472.8,472.8,0,0,1-73.526-60.078c-10.023-10.023-19.682-20.584-28.709-31.389S354.713,42.122,346.736,30.6c15.189-5.079,30.858-9.583,46.574-13.389s31.937-7.026,48.194-9.564,33.018-4.47,49.812-5.738S525.4,0,542.745,0c19.7,0,39.314.758,58.3,2.252s37.888,3.767,56.183,6.758C675.509,12,693.7,15.787,711.293,20.273c3.1.789,6.238,1.618,9.339,2.462-3.141,3.414-6.388,6.8-9.649,10.059a330.533,330.533,0,0,1-88.518,63.29A327.757,327.757,0,0,1,515.451,127.41v4.353a329.485,329.485,0,0,1,195.532,94.616,331.642,331.642,0,0,1,50.754,65.31Z" transform="translate(204.219 9.224)"></path><text class="b" transform="translate(3700 848.001)"><tspan x="-2385.277" y="0">GLINT</tspan><tspan class="c" y="0">SHOT</tspan></text></g></svg>